<svg xmlns="http://www.w3.org/2000/svg" xmlns:xlink="http://www.w3.org/1999/xlink" width="1920.001" height="310.17" viewBox="0 0 1920.001 310.17">
  <defs>
    <linearGradient id="linear-gradient" x1="0.587" y1="-0.259" x2="0.398" y2="1.303" gradientUnits="objectBoundingBox">
      <stop offset="0" stop-color="#2d80ff"/>
      <stop offset="1" stop-color="#205ebc"/>
    </linearGradient>
  </defs>
  <path id="Subtraction_2" data-name="Subtraction 2" d="M1920,1073H0V912.059l.02-.013c1.529-.994,15.673-10.094,41.039-23.3,15.6-8.123,32.29-16.164,49.611-23.9,21.65-9.669,44.353-18.887,67.479-27.4a1204.093,1204.093,0,0,1,184-51.3c18.281-3.578,36.915-6.79,55.385-9.546,19.444-2.9,39.245-5.377,58.855-7.359,20.565-2.079,41.485-3.673,62.181-4.736,21.64-1.112,43.632-1.676,65.365-1.676,30.725,0,61.94,1.126,92.778,3.346,32.474,2.338,65.425,5.955,97.938,10.75,34.112,5.031,68.685,11.5,102.757,19.222,35.634,8.078,71.714,17.755,107.238,28.763C1179.706,885.354,1370.336,916,1551.237,916c28.1,0,56.2-.761,83.509-2.263,24.828-1.365,49.569-3.373,73.535-5.966,40.361-4.369,79.293-10.46,115.715-18.1,14.309-3,28.26-6.256,41.466-9.669,10.564-2.73,20.678-5.568,30.061-8.435,15.75-4.812,24.128-8.091,24.477-8.228V1073Z" transform="translate(0.001 -762.83)" fill="url(#linear-gradient)"/>
</svg>
